<svg version="1.1" xmlns="http://www.w3.org/2000/svg" viewBox="0 0 226 42" width="226" height="42">
  <!-- svg-source:excalidraw -->
  
  <defs>
    <style>
      @font-face {
        font-family: "Virgil";
        src: url("https://excalidraw.com/Virgil.woff2");
      }
      @font-face {
        font-family: "Cascadia";
        src: url("https://excalidraw.com/Cascadia.woff2");
      }
    </style>
  </defs>
  <rect x="0" y="0" width="226" height="42" fill="#ffffff"></rect><g stroke-linecap="round" transform="translate(10 10) rotate(0 103 11)"><path d="M-0.51 1.42 C50.84 3.03, 103.06 4.14, 204.46 -0.1 M-0.2 0.31 C52.62 -4.07, 103.2 -4.58, 207.67 1.57 M202.64 1.34 C204.14 10.9, 206.48 11.89, 202.11 24.76 M207.87 -1.04 C204.72 7.12, 204.46 11.92, 204.06 20.23 M207.63 22.14 C140.8 17.89, 68.46 19.44, 2.12 21.62 M206.37 23.58 C126.57 22.08, 43.14 25.15, 0.21 22.72 M-1.72 20.41 C-0.74 17.54, 3.26 6.32, -3.64 -0.68 M0.18 23.56 C-0.73 16.51, -1.84 9.45, 1.64 -1.53" stroke="#000000" stroke-width="1" fill="none"></path></g></svg>