<svg version="1.1" xmlns="http://www.w3.org/2000/svg" viewBox="0 0 1060 637" width="1060" height="637">
  <!-- svg-source:excalidraw -->
  
  <defs>
    <style>
      @font-face {
        font-family: "Virgil";
        src: url("https://excalidraw.com/Virgil.woff2");
      }
      @font-face {
        font-family: "Cascadia";
        src: url("https://excalidraw.com/Cascadia.woff2");
      }
    </style>
  </defs>
  <rect x="0" y="0" width="1060" height="637" fill="#ffffff"></rect><g stroke-linecap="round" transform="translate(84 176) rotate(0 95 37.5)"><path d="M1.2 -0.09 C54.89 -1.81, 108.3 -1.57, 189.39 -1.26 M0.64 0.12 C70.61 0.7, 141.99 1.85, 190.58 0.18 M188.41 1.07 C190.02 22.71, 191.83 44.26, 191.31 76.68 M189.46 0.27 C190.06 20.32, 189.17 40.82, 190.7 75.58 M190.07 75.89 C134.76 75.94, 79.79 77.28, -1.45 76.1 M189.02 74.73 C123.94 75.13, 55.07 74.19, 0.33 74.19 M-0.93 73.86 C0.78 49.18, -1.03 25.2, 1.64 -0.8 M0.64 74.11 C-1.1 58.42, -1.54 39.82, 0.23 0.56" stroke="#000000" stroke-width="1" fill="none"></path></g><g transform="translate(106 199) rotate(0 74.5 13)"><text x="0" y="18" font-family="Virgil, Segoe UI Emoji" font-size="20px" fill="#000000" text-anchor="start" style="white-space: pre;" direction="ltr">Mon navigateur</text></g><g stroke-linecap="round" transform="translate(10 93) rotate(0 153 102)"><path d="M-2.44 1.62 C110.93 -1.57, 225.8 -0.15, 304.51 2.44 M303.33 -0.01 C309.2 69.68, 306.66 138.15, 302.8 202.99 M306.9 202.09 C193.23 199.6, 78.55 203.84, -2.39 201.7 M-1.86 202.15 C1.28 146.37, 3.56 88.89, 3.06 1.65" stroke="#000000" stroke-width="1.5" fill="none" stroke-dasharray="8 9"></path></g><g transform="translate(87 108) rotate(0 73 13)"><text x="0" y="18" font-family="Virgil, Segoe UI Emoji" font-size="20px" fill="#000000" text-anchor="start" style="white-space: pre;" direction="ltr">Mon ordinateur</text></g><g stroke-linecap="round" transform="translate(745 177) rotate(0 103 71)"><path d="M66.13 5.96 C78.27 1.85, 97.48 1.36, 111.81 1.92 C126.14 2.49, 139.76 5.18, 152.12 9.34 C164.47 13.49, 177.35 19.18, 185.93 26.86 C194.51 34.54, 200.83 46.21, 203.61 55.43 C206.39 64.66, 205.43 73.33, 202.6 82.2 C199.77 91.08, 194.34 100.54, 186.64 108.69 C178.94 116.83, 168.23 125.79, 156.4 131.06 C144.57 136.32, 129.56 139.1, 115.65 140.29 C101.75 141.49, 86.39 140.74, 72.97 138.21 C59.56 135.68, 45.89 130.96, 35.16 125.11 C24.43 119.26, 14.34 111.44, 8.6 103.09 C2.86 94.75, 1.17 85.01, 0.72 75.05 C0.27 65.09, 0.72 52.46, 5.88 43.31 C11.03 34.17, 13.45 27.61, 31.63 20.18 C49.82 12.76, 93.17 -0.58, 115.01 -1.23 C136.85 -1.88, 162.87 14.71, 162.69 16.29 M42.01 12.11 C51.51 6.04, 64.26 4.66, 77.68 2.55 C91.11 0.45, 108.32 -1.99, 122.56 -0.52 C136.8 0.94, 151.4 5.2, 163.13 11.34 C174.86 17.48, 185.66 28.1, 192.92 36.32 C200.18 44.54, 205.45 51.18, 206.7 60.64 C207.94 70.11, 204.42 83.9, 200.41 93.12 C196.4 102.33, 192.11 108.54, 182.64 115.95 C173.18 123.36, 157.12 133, 143.59 137.55 C130.06 142.09, 114.64 143.53, 101.47 143.21 C88.29 142.89, 76.62 139.34, 64.53 135.63 C52.44 131.92, 38.6 127.79, 28.93 120.96 C19.26 114.13, 11.53 104.33, 6.5 94.64 C1.47 84.95, -2.39 73, -1.24 62.8 C-0.1 52.59, 6.64 41.66, 13.36 33.42 C20.09 25.18, 34.13 16.74, 39.1 13.36 C44.07 9.98, 41.58 12.21, 43.19 13.13" stroke="#000000" stroke-width="1" fill="none"></path></g><g transform="translate(770 228) rotate(0 83.5 13)"><text x="0" y="18" font-family="Virgil, Segoe UI Emoji" font-size="20px" fill="#000000" text-anchor="start" style="white-space: pre;" direction="ltr">Base de données</text></g><g stroke-linecap="round" transform="translate(531 155) rotate(0 90.5 86.5)"><path d="M91 0.56 C113.32 21.31, 134.7 40.99, 183.56 85.84 M92.55 -1.32 C120.88 27.73, 147.44 51.47, 181.54 87.36 M181.85 84.67 C154.1 115.49, 120.13 142.87, 88.76 170.78 M182.85 87.88 C152.57 114.76, 124.3 142.14, 91.93 174.82 M93.56 174.74 C59.3 140.4, 25.78 108.47, -3.33 83.84 M89.4 171.14 C61.62 146.45, 35.74 122.13, 1.1 86.24 M2.09 89.97 C28.93 63.54, 53.96 36.3, 93.39 1.42 M-1.72 86.97 C24.22 62.54, 49.8 37.94, 92.62 -1.06" stroke="#000000" stroke-width="1" fill="none"></path></g><g transform="translate(558.5 228.5) rotate(0 63 13)"><text x="63" y="18" font-family="Virgil, Segoe UI Emoji" font-size="20px" fill="#000000" text-anchor="middle" style="white-space: pre;" direction="ltr">Serveur WEB</text></g><g transform="translate(642 429) rotate(0 108.5 13)"><text x="108.5" y="18" font-family="Virgil, Segoe UI Emoji" font-size="20px" fill="#000000" text-anchor="middle" style="white-space: pre;" direction="ltr">Moteur PHP/Pyhton/...</text></g><g stroke-linecap="round" transform="translate(623 395) rotate(0 136.5 52)"><path d="M-2.81 -2.08 C70.03 -4.56, 144.74 0.45, 273.47 -1.37 M-0.53 -1.48 C65.65 -2.52, 132.87 -3.81, 273.25 -1.06 M273.83 -2.82 C270.23 25.93, 272.96 55.83, 273.55 106.72 M274.11 -1.55 C272.66 37.45, 273.03 72.17, 271.68 104.42 M272.25 101.78 C200.08 107.54, 125.89 108.37, -0.85 105.64 M274.32 103.01 C218.76 108.94, 163.26 106.81, -0.81 103.51 M-3.32 102.33 C-1.05 79.82, 1.37 54.28, 0.58 -1.12 M-1.16 102.12 C3.08 66.49, 2.53 32.75, -0.24 0.53" stroke="#000000" stroke-width="1" fill="none"></path></g><g stroke-linecap="round"><g transform="translate(257 210) rotate(0 129.34517750516534 17.215396083742377)"><path d="M-1.71 1.76 C41.8 7.07, 216.93 26.56, 260.4 31.76 M2.56 0.25 C45.88 5.84, 216.46 28.3, 258.92 34.18" stroke="#000000" stroke-width="1" fill="none"></path></g><g transform="translate(257 210) rotate(0 129.34517750516534 17.215396083742377)"><path d="M232.14 42.59 C234.53 39.33, 244.35 36.52, 255.34 32.74 M229.63 40.78 C239.4 38.49, 244.32 38.38, 258.02 35.75" stroke="#000000" stroke-width="1" fill="none"></path></g><g transform="translate(257 210) rotate(0 129.34517750516534 17.215396083742377)"><path d="M234.87 22.25 C236.5 24.59, 245.56 27.4, 255.34 32.74 M232.37 20.44 C241.78 23.81, 245.95 29.34, 258.02 35.75" stroke="#000000" stroke-width="1" fill="none"></path></g></g><g transform="translate(326 197) rotate(0 73 13)"><text x="0" y="18" font-family="Virgil, Segoe UI Emoji" font-size="20px" fill="#000000" text-anchor="start" style="white-space: pre;" direction="ltr">Requete HTTP</text></g><g stroke-linecap="round" transform="translate(506 58) rotate(0 155 258)"><path d="M-1.62 -0.16 C86.73 -2.15, 176.18 -1.77, 309 -1.7 M311.33 -1.42 C306.04 171.51, 305.45 345.04, 309.65 517.14 M307.82 518.64 C184.86 521.69, 61.07 520.44, 1.25 514.14 M-0.84 515.36 C-3.05 320.73, -0.63 124.35, 1.46 -0.56" stroke="#000000" stroke-width="1.5" fill="none" stroke-dasharray="8 9"></path></g><g transform="translate(548 69) rotate(0 99.5 39)"><text x="0" y="18" font-family="Virgil, Segoe UI Emoji" font-size="20px" fill="#000000" text-anchor="start" style="white-space: pre;" direction="ltr">Un serveur, </text><text x="0" y="44" font-family="Virgil, Segoe UI Emoji" font-size="20px" fill="#000000" text-anchor="start" style="white-space: pre;" direction="ltr">dans doute </text><text x="0" y="70" font-family="Virgil, Segoe UI Emoji" font-size="20px" fill="#000000" text-anchor="start" style="white-space: pre;" direction="ltr">dans un dataCenter</text></g><g stroke-linecap="round" transform="translate(821 121) rotate(0 114.5 253)"><path d="M0.09 -2.44 C78.04 3.67, 154.18 -0.21, 229.68 0.26 M229.79 -0.76 C232.12 141.47, 231.14 282.24, 230.18 505.5 M230.95 504.78 C179.74 508.81, 137.53 507.18, -2.04 506.76 M-1.6 506.78 C-3.49 393.29, -2.78 280.97, 0.64 -1.36" stroke="#000000" stroke-width="1.5" fill="none" stroke-dasharray="8 9"></path></g><g transform="translate(861 124) rotate(0 90.5 39)"><text x="0" y="18" font-family="Virgil, Segoe UI Emoji" font-size="20px" fill="#000000" text-anchor="start" style="white-space: pre;" direction="ltr">Une autre machine</text><text x="0" y="44" font-family="Virgil, Segoe UI Emoji" font-size="20px" fill="#000000" text-anchor="start" style="white-space: pre;" direction="ltr">du dataCenter</text><text x="0" y="70" font-family="Virgil, Segoe UI Emoji" font-size="20px" fill="#000000" text-anchor="start" style="white-space: pre;" direction="ltr"></text></g><g stroke-linecap="round"><g transform="translate(651 309) rotate(0 25.810934637933997 38.9671272970736)"><path d="M0 -1.79 C9.61 11.37, 45.81 66.55, 55.06 79.73 M-3.44 3.4 C6.13 15.61, 43.73 62.43, 53.4 75.11" stroke="#000000" stroke-width="1" fill="none"></path></g><g transform="translate(651 309) rotate(0 25.810934637933997 38.9671272970736)"><path d="M25.36 60.79 C34.33 64.75, 36.13 69.8, 55.21 75.13 M28.29 60.87 C35.16 63.71, 41.72 69.08, 54.08 73.65" stroke="#000000" stroke-width="1" fill="none"></path></g><g transform="translate(651 309) rotate(0 25.810934637933997 38.9671272970736)"><path d="M41.51 48.12 C47.19 54.71, 45.66 62.38, 55.21 75.13 M44.44 48.21 C46.76 54.29, 48.92 63.1, 54.08 73.65" stroke="#000000" stroke-width="1" fill="none"></path></g></g><g stroke-linecap="round"><g transform="translate(752 391) rotate(0 14.169823914170252 -44.10983908712862)"><path d="M-2.07 0.67 C2.62 -13.82, 20.04 -70.76, 25.41 -85.33 M2 -1.43 C7.77 -16.78, 25.82 -73.86, 30.41 -88.89" stroke="#000000" stroke-width="1" fill="none"></path></g><g transform="translate(752 391) rotate(0 14.169823914170252 -44.10983908712862)"><path d="M32.76 -62.62 C34.98 -61.9, 32.64 -72.3, 32.35 -90.99 M31.55 -58.01 C30.23 -71.47, 30.81 -81.58, 31.47 -90.2" stroke="#000000" stroke-width="1" fill="none"></path></g><g transform="translate(752 391) rotate(0 14.169823914170252 -44.10983908712862)"><path d="M13.17 -68.74 C19.42 -66.49, 21.03 -75.66, 32.35 -90.99 M11.97 -64.14 C17.72 -75.33, 25.44 -83.21, 31.47 -90.2" stroke="#000000" stroke-width="1" fill="none"></path></g></g><g stroke-linecap="round"><g transform="translate(887 322) rotate(0 -15.017821432948153 32.44969944372775)"><path d="M2.52 2 C-2.47 12.38, -25.29 51.59, -30.91 61.83 M0.44 0.61 C-4.73 11.33, -27.05 53.34, -32.55 64.29" stroke="#000000" stroke-width="1" fill="none"></path></g><g transform="translate(887 322) rotate(0 -15.017821432948153 32.44969944372775)"><path d="M-25.84 36.1 C-32.91 43.6, -31.58 50.69, -33.82 64.18 M-29.41 34.36 C-28.45 43.44, -32.71 56.1, -31.86 65.31" stroke="#000000" stroke-width="1" fill="none"></path></g><g transform="translate(887 322) rotate(0 -15.017821432948153 32.44969944372775)"><path d="M-7.62 45.53 C-19.47 50.88, -22.94 55.48, -33.82 64.18 M-11.19 43.8 C-16.59 49.6, -27.22 58.95, -31.86 65.31" stroke="#000000" stroke-width="1" fill="none"></path></g></g><g stroke-linecap="round"><g transform="translate(652 385) rotate(0 -15.800034281164415 -23.464011729359612)"><path d="M-1.62 -1.67 C-7.12 -10.33, -27.26 -42.61, -32.03 -50.53 M2.69 3.6 C-3.27 -4.94, -28.66 -39.88, -34.29 -48.27" stroke="#000000" stroke-width="1" fill="none"></path></g><g transform="translate(652 385) rotate(0 -15.800034281164415 -23.464011729359612)"><path d="M-13.01 -31.82 C-22.32 -35.06, -28.3 -41.62, -32.41 -48.22 M-8.64 -32.32 C-18.01 -37.39, -29.36 -42.41, -33.34 -47.79" stroke="#000000" stroke-width="1" fill="none"></path></g><g transform="translate(652 385) rotate(0 -15.800034281164415 -23.464011729359612)"><path d="M-29.15 -20.47 C-33.18 -27.32, -33.76 -37.68, -32.41 -48.22 M-24.78 -20.97 C-28.04 -30.33, -33.41 -39.55, -33.34 -47.79" stroke="#000000" stroke-width="1" fill="none"></path></g></g><g stroke-linecap="round"><g transform="translate(559 293) rotate(0 -140.12567322477702 -23.019486809372893)"><path d="M1.33 0.66 C-45.28 -6.88, -234.43 -35.65, -281.58 -43.21 M-1.4 -1.45 C-47 -9.88, -230.79 -38.69, -276.58 -46.7" stroke="#000000" stroke-width="1" fill="none"></path></g><g transform="translate(559 293) rotate(0 -140.12567322477702 -23.019486809372893)"><path d="M-246.15 -55.92 C-249.85 -54.33, -258.79 -46.5, -272.91 -47.49 M-248.44 -51.04 C-255.2 -52.71, -260.29 -50.97, -275.59 -46.53" stroke="#000000" stroke-width="1" fill="none"></path></g><g transform="translate(559 293) rotate(0 -140.12567322477702 -23.019486809372893)"><path d="M-249.49 -35.67 C-252.71 -38.8, -260.89 -35.66, -272.91 -47.49 M-251.78 -30.8 C-257.44 -36.76, -261.82 -39.32, -275.59 -46.53" stroke="#000000" stroke-width="1" fill="none"></path></g></g><g transform="translate(86 10) rotate(0 321 18)"><text x="0" y="25" font-family="Virgil, Segoe UI Emoji" font-size="28px" fill="#000000" text-anchor="start" style="white-space: pre;" direction="ltr">Architecture multicouche, aussi appelé N-Tiers</text></g><g stroke-linecap="round" transform="translate(738 391) rotate(0 125 14.5)"><path d="M-3.02 -2.28 C98.16 5.78, 195.64 1.25, 251.75 2.07 M-0.27 -0.92 C84.74 1.51, 166.37 1.93, 250.03 0.81 M247.64 3 C245.88 8.07, 252.31 11.35, 247.01 29.72 M249.65 0.83 C249.19 9.8, 248.55 18.03, 250.05 27.23 M253.16 30.44 C151.91 27.55, 58.58 28.55, 1.15 30.62 M251.32 28.52 C195.64 26.6, 138.79 27.7, 1.47 30.12 M1.89 27.53 C2.25 19.01, -1.16 8.29, -0.12 3.08 M1.79 27.59 C1.71 18.66, -1.01 10.06, -0.75 -1.03" stroke="#000000" stroke-width="1" fill="none"></path></g><g transform="translate(751.5 396) rotate(0 112.5 10.5)"><text x="112.5" y="15" font-family="Virgil, Segoe UI Emoji" font-size="16px" fill="#000000" text-anchor="middle" style="white-space: pre;" direction="ltr">Module d'accès aux données</text></g><g stroke-linecap="round" transform="translate(523 394) rotate(0 103 11)"><path d="M-0.51 1.42 C50.84 3.03, 103.06 4.14, 204.46 -0.1 M-0.2 0.31 C52.62 -4.07, 103.2 -4.58, 207.67 1.57 M202.64 1.34 C204.14 10.9, 206.48 11.89, 202.11 24.76 M207.87 -1.04 C204.72 7.12, 204.46 11.92, 204.06 20.23 M207.63 22.14 C140.8 17.89, 68.46 19.44, 2.12 21.62 M206.37 23.58 C126.57 22.08, 43.14 25.15, 0.21 22.72 M-1.72 20.41 C-0.74 17.54, 3.26 6.32, -3.64 -0.68 M0.18 23.56 C-0.73 16.51, -1.84 9.45, 1.64 -1.53" stroke="#000000" stroke-width="1" fill="none"></path></g><g transform="translate(525.5 394.5) rotate(0 95.5 10.5)"><text x="95.5" y="15" font-family="Virgil, Segoe UI Emoji" font-size="16px" fill="#000000" text-anchor="middle" style="white-space: pre;" direction="ltr">Module d'interaction web</text></g></svg>