<svg version="1.1" xmlns="http://www.w3.org/2000/svg" viewBox="0 0 1067 847.0299560914189" width="1067" height="847.0299560914189">
  <!-- svg-source:excalidraw -->
  
  <defs>
    <style>
      @font-face {
        font-family: "Virgil";
        src: url("https://excalidraw.com/Virgil.woff2");
      }
      @font-face {
        font-family: "Cascadia";
        src: url("https://excalidraw.com/Cascadia.woff2");
      }
    </style>
  </defs>
  <rect x="0" y="0" width="1067" height="847.0299560914189" fill="#ffffff"></rect><g stroke-linecap="round" transform="translate(27 251) rotate(0 79 25)"><path d="M-0.67 -0.08 C50.19 -0.72, 103.59 1.29, 156.98 -1.34 M-0.2 -1 C53.28 -1.79, 105.53 -1.58, 158.31 0.32 M156.54 0.44 C156.28 13.14, 157.43 25.42, 156.2 51.41 M158.08 0.14 C158.28 14.52, 156.92 30.59, 159 49.76 M158.25 48.31 C119.17 52.55, 82.36 49.3, 1.78 51.91 M157.02 50.05 C123.77 48.83, 88 48.45, 0.89 49.04 M0.88 51.05 C-1.76 30.74, -1.33 10.37, 1.16 -1.6 M0.77 49.04 C0.63 33.11, 0.22 18, -0.15 -0.84" stroke="#000000" stroke-width="1" fill="none"></path></g><g transform="translate(43 264) rotate(0 60.5 13)"><text x="0" y="18" font-family="Virgil, Segoe UI Emoji" font-size="20px" fill="#000000" text-anchor="start" style="white-space: pre;" direction="ltr">Client HTTP</text></g><g transform="translate(47 307) rotate(0 59 13)"><text x="0" y="18" font-family="Virgil, Segoe UI Emoji" font-size="20px" fill="#000000" text-anchor="start" style="white-space: pre;" direction="ltr">(navigateur)</text></g><g stroke-linecap="round" transform="translate(763 246) rotate(0 92.5 30.5)"><path d="M-1.96 0.72 C54.61 -0.6, 107.92 -2.39, 186.87 0.7 M0.08 -0.47 C57.38 1.59, 114.13 1.37, 185.01 -0.55 M185.3 -1.61 C184.97 23.88, 185.95 45.8, 185.16 59.49 M184.16 0.92 C185.46 14.03, 185.55 28.12, 184.71 61.32 M186.43 62.31 C112.06 63.06, 40.04 61.94, -1.33 59.83 M185.28 61.31 C124.65 61.3, 62.74 61, -0.27 61.94 M-1.89 61.88 C0.28 37.89, -2.04 17.04, 0.04 0.94 M-0.62 61.41 C1.03 44.25, 0.58 26.55, -0.91 0.83" stroke="#000000" stroke-width="1" fill="none"></path></g><g transform="translate(788.5 264.5) rotate(0 69.5 13)"><text x="69.5" y="18" font-family="Virgil, Segoe UI Emoji" font-size="20px" fill="#000000" text-anchor="middle" style="white-space: pre;" direction="ltr">Serveur HTTP</text></g><g stroke-linecap="round"><g transform="translate(107 337) rotate(0 2.309889701241616 244.17080116828905)"><path d="M0.72 -0.47 C1.71 81.1, 4.6 407.1, 4.98 488.72 M-0.36 -1.77 C0.65 80.05, 3.6 408.04, 4.55 490.11" stroke="#000000" stroke-width="1" fill="none"></path></g></g><g stroke-linecap="round"><g transform="translate(863 312) rotate(0 5.323688696399358 262.69842526890335)"><path d="M-0.18 0.93 C2.06 88.12, 10.31 436.53, 12.37 523.67 M-1.73 0.37 C0.47 87.69, 9.41 437.6, 11.62 525.03" stroke="#000000" stroke-width="1" fill="none"></path></g></g><g stroke-linecap="round"><g transform="translate(120 382) rotate(0 353.49500417314465 0.04544249738754047)"><path d="M-1.18 -0.9 C116.3 -0.95, 588.02 -1.26, 705.99 -1.1 M0.41 1.24 C118.15 1.37, 590.63 -0.17, 708.17 -0.15" stroke="#000000" stroke-width="1" fill="none"></path></g><g transform="translate(120 382) rotate(0 353.49500417314465 0.04544249738754047)"><path d="M678.49 8.48 C689.32 5.74, 702.35 0.75, 708.38 1.72 M680.45 10.93 C685.34 8.7, 691.64 5.62, 709.13 0.23" stroke="#000000" stroke-width="1" fill="none"></path></g><g transform="translate(120 382) rotate(0 353.49500417314465 0.04544249738754047)"><path d="M678.46 -12.05 C689.16 -6.71, 702.2 -3.61, 708.38 1.72 M680.42 -9.59 C685.26 -7.35, 691.56 -5.95, 709.13 0.23" stroke="#000000" stroke-width="1" fill="none"></path></g></g><g transform="translate(321 332) rotate(0 69 13)"><text x="0" y="18" font-family="Virgil, Segoe UI Emoji" font-size="20px" fill="#000000" text-anchor="start" style="white-space: pre;" direction="ltr">URL + VERBE</text></g><g transform="translate(420 393) rotate(0 140 39)"><text x="0" y="18" font-family="Virgil, Segoe UI Emoji" font-size="20px" fill="#000000" text-anchor="start" style="white-space: pre;" direction="ltr">en option :</text><text x="0" y="44" font-family="Virgil, Segoe UI Emoji" font-size="20px" fill="#000000" text-anchor="start" style="white-space: pre;" direction="ltr">- des paramètres en header</text><text x="0" y="70" font-family="Virgil, Segoe UI Emoji" font-size="20px" fill="#000000" text-anchor="start" style="white-space: pre;" direction="ltr">- un corps (body)</text></g><g transform="translate(70 10) rotate(0 392.5 26)"><text x="0" y="18" font-family="Virgil, Segoe UI Emoji" font-size="20px" fill="#000000" text-anchor="start" style="white-space: pre;" direction="ltr">URL (max à 255 char ?):</text><text x="0" y="44" font-family="Virgil, Segoe UI Emoji" font-size="20px" fill="#000000" text-anchor="start" style="white-space: pre;" direction="ltr">https://descodeuses.org/exmple/uri/plus/loin#ici?param1=valeur1&amp;param2=valeur2</text></g><g stroke-linecap="round"><g transform="translate(70 63) rotate(0 26.72206366844472 0.2676368762441683)"><path d="M-0.39 -0.83 C8.66 -0.81, 44.98 -0.99, 53.83 -0.9 M1.61 1.35 C10.61 1.67, 44.96 1.29, 53.32 0.69" stroke="#000000" stroke-width="1" fill="none"></path></g></g><g transform="translate(10 98) rotate(0 46.5 13)"><text x="0" y="18" font-family="Virgil, Segoe UI Emoji" font-size="20px" fill="#000000" text-anchor="start" style="white-space: pre;" direction="ltr">Protocole</text></g><g stroke-linecap="round"><g transform="translate(89 63) rotate(0 -12.175562624260778 13.316564307734367)"><path d="M0.71 -1 C-3.37 3.49, -20.78 22.82, -25.06 27.64 M-0.38 1.09 C-4.04 5.17, -19.2 21.7, -22.9 25.85" stroke="#000000" stroke-width="1" fill="none"></path></g><g transform="translate(89 63) rotate(0 -12.175562624260778 13.316564307734367)"><path d="M-17.59 7.53 C-16.72 11.83, -18.08 16.99, -21.71 27.47 M-16.1 9.94 C-18.15 14.02, -20.81 19.96, -23.03 25.53" stroke="#000000" stroke-width="1" fill="none"></path></g><g transform="translate(89 63) rotate(0 -12.175562624260778 13.316564307734367)"><path d="M-8.43 15.83 C-9.89 18.12, -13.52 21.21, -21.71 27.47 M-6.94 18.24 C-12.02 19.54, -17.76 22.68, -23.03 25.53" stroke="#000000" stroke-width="1" fill="none"></path></g></g><g stroke-linecap="round"><g transform="translate(147 65) rotate(0 76.11024337807669 -0.12962307164110598)"><path d="M1.06 0.88 C26.07 1.05, 124.94 0.84, 149.92 0.61 M0.16 0.3 C25.54 0.15, 127.07 -1.23, 152.06 -1.2" stroke="#000000" stroke-width="1" fill="none"></path></g></g><g transform="translate(82 140) rotate(0 266 13)"><text x="0" y="18" font-family="Virgil, Segoe UI Emoji" font-size="20px" fill="#000000" text-anchor="start" style="white-space: pre;" direction="ltr">Serveur (+port, si pas précisé, port 80 part défaut)</text></g><g stroke-linecap="round"><g transform="translate(214.2300745364205 68) rotate(0 -7.68370972053026 31.353266010805967)"><path d="M-0.53 -0.72 C-3.06 9.96, -13.05 52.63, -15.74 63.43 M1.39 1.51 C-1.25 11.89, -14.13 51.41, -16.75 61.53" stroke="#000000" stroke-width="1" fill="none"></path></g><g transform="translate(214.2300745364205 68) rotate(0 -7.68370972053026 31.353266010805967)"><path d="M-19.8 31.39 C-17.59 37.3, -16.08 46.87, -17.05 62.94 M-19.16 32.06 C-18.71 43.43, -16.37 52.92, -15.88 61.75" stroke="#000000" stroke-width="1" fill="none"></path></g><g transform="translate(214.2300745364205 68) rotate(0 -7.68370972053026 31.353266010805967)"><path d="M-0.12 37.22 C-2.8 41.58, -6.22 49.69, -17.05 62.94 M0.52 37.88 C-6.29 47.21, -11.19 54.56, -15.88 61.75" stroke="#000000" stroke-width="1" fill="none"></path></g></g><g transform="translate(275 97) rotate(0 166.5 13)"><text x="0" y="18" font-family="Virgil, Segoe UI Emoji" font-size="20px" fill="#000000" text-anchor="start" style="white-space: pre;" direction="ltr">URI (Uniform Resource Identifier)</text></g><g stroke-linecap="round"><g transform="translate(317 63) rotate(0 85.7403044898063 0.18535621040784633)"><path d="M-0.66 -1.04 C27.93 -1.14, 143.31 -0.19, 172.14 -0.08 M1.19 1.03 C29.59 1.08, 142.85 1.46, 171.27 1.41" stroke="#000000" stroke-width="1" fill="none"></path></g></g><g stroke-linecap="round"><g transform="translate(377.03483549073053 68) rotate(0 -12.06288211173245 12.67730263717472)"><path d="M0.12 0.63 C-4.05 4.84, -20.13 20.28, -24.25 24.28 M-1.28 -0.08 C-5.12 4.36, -18.41 21.14, -21.9 25.43" stroke="#000000" stroke-width="1" fill="none"></path></g><g transform="translate(377.03483549073053 68) rotate(0 -12.06288211173245 12.67730263717472)"><path d="M-15.48 8.17 C-19.55 13.62, -21.1 21.7, -22.52 23.96 M-15.79 9.15 C-18.56 12.31, -19.35 17.31, -21.34 26.09" stroke="#000000" stroke-width="1" fill="none"></path></g><g transform="translate(377.03483549073053 68) rotate(0 -12.06288211173245 12.67730263717472)"><path d="M-6.31 15.52 C-13.65 18.31, -18.53 23.73, -22.52 23.96 M-6.63 16.5 C-11.55 17.8, -14.54 21.04, -21.34 26.09" stroke="#000000" stroke-width="1" fill="none"></path></g></g><g stroke-linecap="round"><g transform="translate(507 64) rotate(0 9.100192011091906 -0.3720283526927233)"><path d="M0.09 0.19 C2.93 -0.11, 14.17 -0.94, 17.22 -0.93 M-1.32 -0.76 C1.89 -1.01, 16.33 -0.28, 19.52 0.12" stroke="#000000" stroke-width="1" fill="none"></path></g></g><g stroke-linecap="round"><g transform="translate(518 65) rotate(0 93.27849246365025 56.837267014393575)"><path d="M1.17 0.01 C32.09 18.79, 155.6 94.71, 186.24 113.75 M0.32 -1.03 C31.12 18.37, 155.23 95.33, 185.88 114.71" stroke="#000000" stroke-width="1" fill="none"></path></g><g transform="translate(518 65) rotate(0 93.27849246365025 56.837267014393575)"><path d="M156.55 110.32 C165.27 110.23, 176.63 111.44, 184.53 113.15 M156.12 108.1 C163.96 110.24, 171.38 112.7, 186.31 114.76" stroke="#000000" stroke-width="1" fill="none"></path></g><g transform="translate(518 65) rotate(0 93.27849246365025 56.837267014393575)"><path d="M167.43 92.92 C172.41 99.17, 179.86 106.63, 184.53 113.15 M167.01 90.7 C172.25 97.13, 176.93 103.97, 186.31 114.76" stroke="#000000" stroke-width="1" fill="none"></path></g></g><g transform="translate(587 187) rotate(0 201 13)"><text x="0" y="18" font-family="Virgil, Segoe UI Emoji" font-size="20px" fill="#000000" text-anchor="start" style="white-space: pre;" direction="ltr">Ancre (pour se positioner dans une page)</text></g><g stroke-linecap="round"><g transform="translate(561 62) rotate(0 151.0370550621301 2.1749040817469307)"><path d="M0.98 1.02 C51.51 1.48, 251.99 3.63, 302.04 3.83 M0.03 0.52 C50.6 1.16, 251.54 1.7, 301.64 2.15" stroke="#000000" stroke-width="1" fill="none"></path></g></g><g stroke-linecap="round"><g transform="translate(726 66) rotate(0 94.9092553062552 23.862888238597662)"><path d="M-0.9 -1.08 C30.49 6.82, 156.86 39.51, 188.47 47.49 M0.82 0.96 C32.59 9.02, 159.58 41.05, 190.72 48.81" stroke="#000000" stroke-width="1" fill="none"></path></g><g transform="translate(726 66) rotate(0 94.9092553062552 23.862888238597662)"><path d="M159.08 50.42 C169.38 50.17, 177.38 49.08, 190.22 48.56 M160.04 51.86 C171.55 49.53, 183.16 49.92, 190.7 49.18" stroke="#000000" stroke-width="1" fill="none"></path></g><g transform="translate(726 66) rotate(0 94.9092553062552 23.862888238597662)"><path d="M164.07 30.52 C172.85 36.36, 179.31 41.4, 190.22 48.56 M165.03 31.96 C174.63 36.76, 184.46 44.24, 190.7 49.18" stroke="#000000" stroke-width="1" fill="none"></path></g></g><g transform="translate(751 125) rotate(0 153 13)"><text x="0" y="18" font-family="Virgil, Segoe UI Emoji" font-size="20px" fill="#000000" text-anchor="start" style="white-space: pre;" direction="ltr">Query (paramètres et valeurs)</text></g><g transform="translate(467 327) rotate(0 163.5 26)"><text x="0" y="18" font-family="Virgil, Segoe UI Emoji" font-size="20px" fill="#000000" text-anchor="start" style="white-space: pre;" direction="ltr">(GET, POST, </text><text x="0" y="44" font-family="Virgil, Segoe UI Emoji" font-size="20px" fill="#000000" text-anchor="start" style="white-space: pre;" direction="ltr">DELETE, PUT, OPTIONS, HEAD)</text></g><g transform="translate(234 267) rotate(0 202.5 13)"><text x="0" y="18" font-family="Virgil, Segoe UI Emoji" font-size="20px" fill="#000000" text-anchor="start" style="white-space: pre;" direction="ltr">(Le navigateur n'utilise que get et post)</text></g><g stroke-linecap="round"><g transform="translate(112 569) rotate(0 376.951363729462 2.6685848615318832)"><path d="M0.03 0.98 C125.66 1.79, 627.54 3.11, 753.09 3.92 M-1.42 0.45 C124.64 1.45, 629.72 4.31, 755.32 4.89" stroke="#000000" stroke-width="1" fill="none"></path></g><g transform="translate(112 569) rotate(0 376.951363729462 2.6685848615318832)"><path d="M728.71 13.48 C732.23 11.38, 742.28 11.47, 757.17 5.26 M726.56 14.08 C735.53 11.11, 744.48 9.26, 755.99 4.8" stroke="#000000" stroke-width="1" fill="none"></path></g><g transform="translate(112 569) rotate(0 376.951363729462 2.6685848615318832)"><path d="M728.82 -7.05 C732.15 -4.14, 742.18 0.95, 757.17 5.26 M726.67 -6.44 C735.65 -2.87, 744.56 1.83, 755.99 4.8" stroke="#000000" stroke-width="1" fill="none"></path></g></g><g transform="translate(133 535) rotate(0 351.5 13)"><text x="0" y="18" font-family="Virgil, Segoe UI Emoji" font-size="20px" fill="#000000" text-anchor="start" style="white-space: pre;" direction="ltr">Un lien (&lt;a href="truc.html"&gt;truc&lt;/a&gt;) c'est automatiquement du GET </text></g><g stroke-linecap="round"><g transform="translate(119.23622860681974 674.2728640272284) rotate(0 375.88786542119107 0.02552173146682435)"><path d="M-0.49 0.21 C124.99 0.39, 626.72 0.75, 752.27 0.81 M1.45 -0.73 C126.87 -0.84, 626.4 -0.65, 751.58 -0.74" stroke="#000000" stroke-width="1" fill="none"></path></g><g transform="translate(119.23622860681974 674.2728640272284) rotate(0 375.88786542119107 0.02552173146682435)"><path d="M723.74 10.36 C732.27 8.75, 738.96 5.87, 749.88 -2.61 M724.36 9.16 C733.2 6.77, 744.36 2.18, 752.18 -0.2" stroke="#000000" stroke-width="1" fill="none"></path></g><g transform="translate(119.23622860681974 674.2728640272284) rotate(0 375.88786542119107 0.02552173146682435)"><path d="M723.74 -10.16 C732.22 -6.65, 738.92 -4.4, 749.88 -2.61 M724.35 -11.36 C733.13 -6.34, 744.29 -3.52, 752.18 -0.2" stroke="#000000" stroke-width="1" fill="none"></path></g></g><g transform="translate(105 639) rotate(0 390.5 13)"><text x="0" y="18" font-family="Virgil, Segoe UI Emoji" font-size="20px" fill="#000000" text-anchor="start" style="white-space: pre;" direction="ltr">un formulaire (&lt;form action="une_url" method="...&gt;) peut utiliser GET ou POST</text></g><g stroke-linecap="round"><g transform="translate(112 755) rotate(0 382.69356875010766 2.23155585160481)"><path d="M1.09 0.37 C128.44 1.02, 637.68 3.04, 765.19 3.96 M0.2 -0.48 C127.32 0.27, 636.71 4.21, 764.34 4.94" stroke="#000000" stroke-width="1" fill="none"></path></g><g transform="translate(112 755) rotate(0 382.69356875010766 2.23155585160481)"><path d="M736.69 15.32 C745.3 12.76, 759.43 5.58, 764.88 3.38 M736.02 15.72 C744.57 12.03, 754.74 8.99, 763.43 5.76" stroke="#000000" stroke-width="1" fill="none"></path></g><g transform="translate(112 755) rotate(0 382.69356875010766 2.23155585160481)"><path d="M736.83 -5.2 C745.4 0.21, 759.48 1, 764.88 3.38 M736.16 -4.81 C744.64 -1.63, 754.75 2.18, 763.43 5.76" stroke="#000000" stroke-width="1" fill="none"></path></g></g><g transform="translate(147 727) rotate(0 335.5 13)"><text x="0" y="18" font-family="Virgil, Segoe UI Emoji" font-size="20px" fill="#000000" text-anchor="start" style="white-space: pre;" direction="ltr">Utiliser JavaScript (requête AJAX ...) peut utiliser tout les verbes</text></g><g transform="translate(252 760) rotate(0 226.5 13)"><text x="0" y="18" font-family="Virgil, Segoe UI Emoji" font-size="20px" fill="#000000" text-anchor="start" style="white-space: pre;" direction="ltr">JavaScript utiliser un autre « client HTTP »</text></g></svg>